<svg xmlns="http://www.w3.org/2000/svg" xmlns:xlink="http://www.w3.org/1999/xlink" width="517.522" height="106.057" viewBox="0 0 517.522 106.057">
  <defs>
    <linearGradient id="linear-gradient" x1="1" y1="0.5" x2="0" y2="0.5" gradientUnits="objectBoundingBox">
      <stop offset="0" stop-opacity="0.302"/>
      <stop offset="0.511" stop-color="#e3e3e3" stop-opacity="0"/>
      <stop offset="1" stop-opacity="0.302"/>
    </linearGradient>
    <radialGradient id="radial-gradient" cx="0.5" cy="0.5" r="0.5" gradientUnits="objectBoundingBox">
      <stop offset="0" stop-color="#fff" stop-opacity="0"/>
      <stop offset="0.918" stop-color="#fff" stop-opacity="0"/>
      <stop offset="1" stop-color="#fff" stop-opacity="0.2"/>
    </radialGradient>
    <linearGradient id="linear-gradient-2" x1="0.5" x2="0.5" y2="1" gradientUnits="objectBoundingBox">
      <stop offset="0" stop-color="#fff" stop-opacity="0.502"/>
      <stop offset="1" stop-opacity="0.502"/>
    </linearGradient>
  </defs>
  <g id="Group" transform="translate(0)">
    <path id="er" d="M10.467,0V2.656C12.341.579,16.917-.128,20.536.022l.71.041.678.063c2.089.234,3.6.785,3.6,1.522a5.914,5.914,0,0,1-.143,1.077L25.25,3.3l-.163.64-.193.69-.219.728q-.058.185-.118.374l-.25.759-.265.763-.276.754-.283.732-.285.7c-.1.225-.19.441-.284.648l-.277.586c-.455.918-.867,1.523-1.147,1.54-6.8.155-9.39,2.059-9.5,6.9l0,.335v21.9H.081L0,30.023.081,10.5V0Z" transform="translate(492 39.96)" fill="#fff"/>
    <path id="Path_3" data-name="Path 3" d="M21.961,42.821a29.393,29.393,0,0,1-3.567-.229,19.372,19.372,0,0,1-12.63-6.741A22.007,22.007,0,0,1,.013,20.3,20.552,20.552,0,0,1,6.835,5.625a22.3,22.3,0,0,1,6.677-4.187A19.976,19.976,0,0,1,20.926,0,21.034,21.034,0,0,1,34.911,5.543c.053.047.122.1.2.17.776.646,2.589,2.156,2.635,4.322.032,1.505-.808,3.044-2.5,4.575C32.444,17.155,17.136,30.6,16.981,30.736a8.367,8.367,0,0,0,5.583,2.177c2.76,0,5.776-1.357,8.965-4.033,4.771-4,6.4-11.227,6.42-11.3l9.141,2.573,0,.011A37.543,37.543,0,0,1,45,26.254a29.784,29.784,0,0,1-7.611,10.731,25.148,25.148,0,0,1-8.215,4.7A22.542,22.542,0,0,1,21.961,42.821ZM20.274,10.6a9.766,9.766,0,0,0-6.481,2.634c-3.387,3.05-4.215,7.031-2.271,10.922l.2.374L25.3,12.3A8.276,8.276,0,0,0,20.274,10.6Z" transform="translate(464.155 30.39) rotate(40)" fill="#fff"/>
    <path id="s" d="M32.088,12.608C31.762,9.257,31.111,7.5,29.4,5.347,26.632,1.915,22.234,0,16.94,0,7.737,0,.407,5.825.407,13.247A11.583,11.583,0,0,0,9.122,24.339c9.366,2.394,9.366,2.394,10.913,3.591a3.076,3.076,0,0,1,1.059,2.234c0,1.756-1.873,3.112-4.235,3.112-2.688,0-4.316-1.277-4.642-3.671H0c.407,4.15,1.547,6.464,4.235,8.937A17.644,17.644,0,0,0,16.37,42.932c9.692,0,17.021-5.905,17.021-13.646a10.52,10.52,0,0,0-3.909-8.459c-2.036-1.676-4.154-2.554-10.425-4.229-4.316-1.117-6.352-2.554-6.352-4.389,0-1.516,1.547-2.554,3.909-2.554,2.2,0,3.258.878,3.5,2.953Z" transform="translate(410.28 39.775)" fill="#fff"/>
    <path id="a" d="M20.53,42.931a21.9,21.9,0,0,1-8.337-1.57,18.714,18.714,0,0,1-6.487-4.405A19.752,19.752,0,0,1,1.5,30.172,24.78,24.78,0,0,1,0,21.465a24.125,24.125,0,0,1,1.537-8.673A19.887,19.887,0,0,1,5.837,6,19.216,19.216,0,0,1,12.431,1.58,22.262,22.262,0,0,1,20.852,0c6.073,0,9.962,1.8,12.237,5.667V1.436H44.521V41.575H33.09V37.266C31.166,41.078,27.057,42.931,20.53,42.931Zm1.69-31.6A9.952,9.952,0,0,0,12.157,21.386,10,10,0,0,0,22.3,31.68,9.846,9.846,0,0,0,32.445,21.465,9.846,9.846,0,0,0,22.22,11.331Z" transform="translate(362.492 39.688)" fill="#fff"/>
    <path id="h" d="M0,54.062H12.366V31.55c0-3.147.409-4.68,1.638-5.971a7.7,7.7,0,0,1,5.241-2.1c4.34,0,6.551,2.9,6.551,8.472V54.062H38.161V31.388c0-8.392-.9-11.781-3.849-14.928A15.62,15.62,0,0,0,23.093,12.1c-5,0-8.762,1.775-10.728,5.083V0H0Z" transform="translate(320.922 26.968)" fill="#fff"/>
    <path id="c" d="M29.009,26.3C26.494,30.06,23.9,31.659,20,31.659c-5.6,0-9.655-4.237-9.655-10.073,0-5.916,4.057-10.313,9.655-10.313a9.186,9.186,0,0,1,8.843,5.6H41.26C39.07,6.875,30.308,0,19.6,0A21.2,21.2,0,0,0,0,12.424L0,30.342a21.622,21.622,0,0,0,19.92,12.59A21.823,21.823,0,0,0,41.342,26.3Z" transform="translate(276.991 39.688)" fill="#fff"/>
    <path id="d" d="M20.436,55.652C8.594,55.652,0,46.488,0,33.861A22.568,22.568,0,0,1,5.758,18.328a19.6,19.6,0,0,1,14.516-6.177,15.543,15.543,0,0,1,12,4.86V0H44.522V54.275H33.006V49.9a15.823,15.823,0,0,1-5.495,4.425A16.523,16.523,0,0,1,20.436,55.652Zm2.271-32.079c-6.062,0-10.462,4.293-10.462,10.207a10.035,10.035,0,0,0,10.3,10.45A10.266,10.266,0,0,0,33.006,33.7,10.105,10.105,0,0,0,22.707,23.573Z" transform="translate(228.289 26.968)" fill="#fff"/>
    <path id="o" d="M22.138,42.932a24.4,24.4,0,0,1-8.89-1.608,20.745,20.745,0,0,1-7.007-4.478,20.137,20.137,0,0,1-4.593-6.832A22.751,22.751,0,0,1,0,21.346,21.72,21.72,0,0,1,6.477,6a20.051,20.051,0,0,1,6.98-4.407A24.811,24.811,0,0,1,22.22,0a24.142,24.142,0,0,1,9.788,1.909A20.808,20.808,0,0,1,39.52,7.6a21.975,21.975,0,0,1,5,13.831,21.64,21.64,0,0,1-1.7,8.414,21.92,21.92,0,0,1-4.776,7.1C34.045,40.915,28.693,42.932,22.138,42.932ZM22.3,11.273A10.01,10.01,0,0,0,12.38,21.346c0,5.879,4.265,10.313,9.922,10.313,5.609,0,9.839-4.4,9.839-10.233A10.011,10.011,0,0,0,22.3,11.273Z" transform="translate(180.995 39.688)" fill="#fff"/>
    <path id="P" d="M13.452,54.062H0V0H17.964c8.664,0,13.244,1.094,16.9,4.035A18.215,18.215,0,0,1,41.342,18.4,20.57,20.57,0,0,1,39.814,26.2a17.664,17.664,0,0,1-4.3,6.234c-3.626,3.324-8.26,4.68-16,4.68h-6.07V54.061Zm0-41.878V24.933h5.66c3.42,0,5.283-.43,6.644-1.534a6.519,6.519,0,0,0,2.133-4.841,6.085,6.085,0,0,0-2.543-5.083c-1.32-.893-3.395-1.291-6.727-1.291Z" transform="translate(139.925 26.968)" fill="#fff"/>
    <g id="Podchaser_Logo_Icon_Updated_Gradient" data-name="Podchaser/Logo/Icon/Updated/Gradient">
      <circle id="Outer_Pink" data-name="Outer Pink" cx="53.029" cy="53.029" r="53.029" transform="translate(0 0)" fill="#ff3382"/>
      <circle id="Outer_White" data-name="Outer White" cx="45.605" cy="45.605" r="45.605" transform="translate(7.424 7.424)" fill="#fff"/>
      <path id="Combined_Shape" data-name="Combined Shape" d="M0,63.322V33.892a33.869,33.869,0,1,1,19.137,30.52v11.54A45.708,45.708,0,0,1,0,63.322Z" transform="translate(19.135 20.289)" fill="#382e5b"/>
      <circle id="Oval" cx="53.029" cy="53.029" r="53.029" transform="translate(0 0)" fill="url(#linear-gradient)"/>
      <circle id="Oval-2" data-name="Oval" cx="53.029" cy="53.029" r="53.029" transform="translate(0 0)" fill="url(#radial-gradient)"/>
      <circle id="Oval-3" data-name="Oval" cx="45.881" cy="45.881" r="45.881" transform="translate(7.147 7.147)" fill="url(#linear-gradient-2)"/>
      <circle id="Oval-4" data-name="Oval" cx="45.881" cy="45.881" r="45.881" transform="translate(7.147 7.147)" fill="none"/>
    </g>
  </g>
</svg>
